  0
SECTION
  2
HEADER
  9
$ACADVER
  1
AC1009
  9
$INSBASE
 10
0.0
 20
0.0
 30
0.0
  9
$EXTMIN
 10
-85.5
 20
0.0
 30
0.0
  9
$EXTMAX
 10
85.5
 20
356.0
 30
0.0
  9
$LIMMIN
 10
0.0
 20
0.0
  9
$LIMMAX
 10
420.0
 20
297.0
  9
$ORTHOMODE
 70
     0
  9
$REGENMODE
 70
     1
  9
$FILLMODE
 70
     1
  9
$QTEXTMODE
 70
     0
  9
$MIRRTEXT
 70
     1
  9
$DRAGMODE
 70
     2
  9
$LTSCALE
 40
100.0
  9
$OSMODE
 70
     0
  9
$ATTMODE
 70
     1
  9
$TEXTSIZE
 40
2.5
  9
$TRACEWID
 40
1.0
  9
$TEXTSTYLE
  7
STANDARD
  9
$CLAYER
  8
0
  9
$CELTYPE
  6
BYLAYER
  9
$CECOLOR
 62
   256
  9
$DIMSCALE
 40
1.0
  9
$DIMASZ
 40
2.5
  9
$DIMEXO
 40
0.625
  9
$DIMDLI
 40
3.75
  9
$DIMRND
 40
0.0
  9
$DIMDLE
 40
0.0
  9
$DIMEXE
 40
1.25
  9
$DIMTP
 40
0.0
  9
$DIMTM
 40
0.0
  9
$DIMTXT
 40
2.5
  9
$DIMCEN
 40
2.5
  9
$DIMTSZ
 40
0.0
  9
$DIMTOL
 70
     0
  9
$DIMLIM
 70
     0
  9
$DIMTIH
 70
     0
  9
$DIMTOH
 70
     0
  9
$DIMSE1
 70
     0
  9
$DIMSE2
 70
     0
  9
$DIMTAD
 70
     1
  9
$DIMZIN
 70
     8
  9
$DIMBLK
  1

  9
$DIMASO
 70
     1
  9
$DIMSHO
 70
     1
  9
$DIMPOST
  1

  9
$DIMAPOST
  1

  9
$DIMALT
 70
     0
  9
$DIMALTD
 70
     4
  9
$DIMALTF
 40
0.0394
  9
$DIMLFAC
 40
1.0
  9
$DIMTOFL
 70
     1
  9
$DIMTVP
 40
0.0
  9
$DIMTIX
 70
     0
  9
$DIMSOXD
 70
     0
  9
$DIMSAH
 70
     0
  9
$DIMBLK1
  1

  9
$DIMBLK2
  1

  9
$DIMSTYLE
  2
*UNNAMED
  9
$DIMCLRD
 70
     0
  9
$DIMCLRE
 70
     0
  9
$DIMCLRT
 70
     0
  9
$DIMTFAC
 40
1.0
  9
$DIMGAP
 40
0.625
  9
$LUNITS
 70
     2
  9
$LUPREC
 70
     4
  9
$SKETCHINC
 40
1.0
  9
$FILLETRAD
 40
10.0
  9
$AUNITS
 70
     0
  9
$AUPREC
 70
     0
  9
$MENU
  1
3D
  9
$ELEVATION
 40
0.0
  9
$PELEVATION
 40
0.0
  9
$THICKNESS
 40
0.0
  9
$LIMCHECK
 70
     0
  9
$BLIPMODE
 70
     0
  9
$CHAMFERA
 40
10.0
  9
$CHAMFERB
 40
10.0
  9
$SKPOLY
 70
     0
  9
$TDCREATE
 40
2452228.466774421
  9
$TDUPDATE
 40
2452228.469932639
  9
$TDINDWG
 40
0.0030164352
  9
$TDUSRTIMER
 40
0.0030164352
  9
$USRTIMER
 70
     1
  9
$ANGBASE
 50
0.0
  9
$ANGDIR
 70
     0
  9
$PDMODE
 70
     0
  9
$PDSIZE
 40
0.0
  9
$PLINEWID
 40
0.0
  9
$COORDS
 70
     1
  9
$SPLFRAME
 70
     0
  9
$SPLINETYPE
 70
     6
  9
$SPLINESEGS
 70
     8
  9
$ATTDIA
 70
     0
  9
$ATTREQ
 70
     1
  9
$HANDLING
 70
     1
  9
$HANDSEED
  5
1956
  9
$SURFTAB1
 70
     6
  9
$SURFTAB2
 70
     6
  9
$SURFTYPE
 70
     6
  9
$SURFU
 70
     6
  9
$SURFV
 70
     6
  9
$UCSNAME
  2

  9
$UCSORG
 10
0.0
 20
0.0
 30
0.0
  9
$UCSXDIR
 10
1.0
 20
0.0
 30
0.0
  9
$UCSYDIR
 10
0.0
 20
1.0
 30
0.0
  9
$PUCSNAME
  2

  9
$PUCSORG
 10
0.0
 20
0.0
 30
0.0
  9
$PUCSXDIR
 10
1.0
 20
0.0
 30
0.0
  9
$PUCSYDIR
 10
0.0
 20
1.0
 30
0.0
  9
$USERI1
 70
     0
  9
$USERI2
 70
     0
  9
$USERI3
 70
     0
  9
$USERI4
 70
     0
  9
$USERI5
 70
     0
  9
$USERR1
 40
0.0
  9
$USERR2
 40
0.0
  9
$USERR3
 40
0.0
  9
$USERR4
 40
0.0
  9
$USERR5
 40
0.0
  9
$WORLDVIEW
 70
     1
  9
$SHADEDGE
 70
     3
  9
$SHADEDIF
 70
    70
  9
$TILEMODE
 70
     1
  9
$MAXACTVP
 70
    32
  9
$PINSBASE
 10
326.958548
 20
50.0
 30
361.76553
  9
$PLIMCHECK
 70
     0
  9
$PEXTMIN
 10
1.000000E+20
 20
1.000000E+20
 30
1.000000E+20
  9
$PEXTMAX
 10
-1.000000E+20
 20
-1.000000E+20
 30
-1.000000E+20
  9
$PLIMMIN
 10
0.0
 20
0.0
  9
$PLIMMAX
 10
420.0
 20
297.0
  9
$UNITMODE
 70
     0
  9
$VISRETAIN
 70
     1
  9
$PLINEGEN
 70
     0
  9
$PSLTSCALE
 70
     1
  9
$TREEDEPTH
 70
  3020
  9
$DWGCODEPAGE
  3
dummy
  0
ENDSEC
  0
SECTION
  2
TABLES
  0
TABLE
  2
VPORT
 70
     2
  0
VPORT
  2
*ACTIVE
 70
     0
 10
0.0
 20
0.0
 11
1.0
 21
1.0
 12
158.623827
 22
178.0
 13
0.0
 23
0.0
 14
10.0
 24
10.0
 15
10.0
 25
10.0
 16
0.0
 26
0.0
 36
1.0
 17
0.0
 27
0.0
 37
0.0
 40
395.555556
 41
1.371482
 42
50.0
 43
0.0
 44
0.0
 50
0.0
 51
0.0
 71
     0
 72
  2000
 73
     1
 74
     1
 75
     0
 76
     0
 77
     0
 78
     0
  0
ENDTAB
  0
TABLE
  2
LTYPE
 70
     1
  0
LTYPE
  2
CONTINUOUS
 70
    64
  3
Solid line
 72
    65
 73
     0
 40
0.0
  0
ENDTAB
  0
TABLE
  2
LAYER
 70
    29
  0
LAYER
  2
0
 70
     0
 62
     7
  6
CONTINUOUS
  0
LAYER
  2
610UB125
 70
    65
 62
     7
  6
CONTINUOUS
  0
LAYER
  2
610UB113
 70
    65
 62
     7
  6
CONTINUOUS
  0
LAYER
  2
610UB101
 70
    65
 62
     7
  6
CONTINUOUS
  0
LAYER
  2
530UB92
 70
    65
 62
     7
  6
CONTINUOUS
  0
LAYER
  2
530UB82
 70
    65
 62
     7
  6
CONTINUOUS
  0
LAYER
  2
460UB82
 70
    65
 62
     7
  6
CONTINUOUS
  0
LAYER
  2
460UB74
 70
    65
 62
     7
  6
CONTINUOUS
  0
LAYER
  2
460UB67
 70
    65
 62
     7
  6
CONTINUOUS
  0
LAYER
  2
410UB60
 70
    65
 62
     7
  6
CONTINUOUS
  0
LAYER
  2
410UB54
 70
    65
 62
     7
  6
CONTINUOUS
  0
LAYER
  2
360UB57
 70
    65
 62
     7
  6
CONTINUOUS
  0
LAYER
  2
360UB51
 70
    64
 62
     7
  6
CONTINUOUS
  0
LAYER
  2
360UB45
 70
    65
 62
     7
  6
CONTINUOUS
  0
LAYER
  2
310UB46
 70
    65
 62
     7
  6
CONTINUOUS
  0
LAYER
  2
310UB40
 70
    65
 62
     7
  6
CONTINUOUS
  0
LAYER
  2
310UB32
 70
    65
 62
     7
  6
CONTINUOUS
  0
LAYER
  2
250UB37
 70
    65
 62
     7
  6
CONTINUOUS
  0
LAYER
  2
250UB31
 70
    65
 62
     7
  6
CONTINUOUS
  0
LAYER
  2
250UB26
 70
    65
 62
     7
  6
CONTINUOUS
  0
LAYER
  2
200UB30
 70
    65
 62
     7
  6
CONTINUOUS
  0
LAYER
  2
200UB25
 70
    65
 62
     7
  6
CONTINUOUS
  0
LAYER
  2
200UB22
 70
    65
 62
     7
  6
CONTINUOUS
  0
LAYER
  2
200UB18
 70
    65
 62
     7
  6
CONTINUOUS
  0
LAYER
  2
180UB22
 70
    65
 62
     7
  6
CONTINUOUS
  0
LAYER
  2
180UB18
 70
    65
 62
     7
  6
CONTINUOUS
  0
LAYER
  2
180UB16
 70
    65
 62
     7
  6
CONTINUOUS
  0
LAYER
  2
150UB18
 70
    65
 62
     7
  6
CONTINUOUS
  0
LAYER
  2
150UB14
 70
    65
 62
     7
  6
CONTINUOUS
  0
ENDTAB
  0
TABLE
  2
STYLE
 70
     1
  0
STYLE
  2
STANDARD
 70
     0
 40
0.0
 41
1.0
 50
0.0
 71
     0
 42
2.5
  3
txt
  4

  0
ENDTAB
  0
TABLE
  2
VIEW
 70
     0
  0
ENDTAB
  0
TABLE
  2
UCS
 70
     0
  0
ENDTAB
  0
TABLE
  2
APPID
 70
     1
  0
APPID
  2
ACAD
 70
    64
  0
ENDTAB
  0
TABLE
  2
DIMSTYLE
 70
     0
  0
ENDTAB
  0
ENDSEC
  0
SECTION
  2
BLOCKS
  0
ENDSEC
  0
SECTION
  2
ENTITIES
  0
POLYLINE
  8
200UB22
  5
1C5
 66
     1
 10
0.0
 20
0.0
 30
0.0
 70
     1
  0
VERTEX
  8
200UB22
  5
1C6
 10
-66.5
 20
202.0
 30
0.0
  0
VERTEX
  8
200UB22
  5
1C7
 10
66.5
 20
202.0
 30
0.0
  0
VERTEX
  8
200UB22
  5
1C9
 10
66.5
 20
195.0
 30
0.0
  0
VERTEX
  8
200UB22
  5
1CA
 10
11.4
 20
195.0
 30
0.0
 42
0.414214
  0
VERTEX
  8
200UB22
  5
1CB
 10
2.5
 20
186.1
 30
0.0
  0
VERTEX
  8
200UB22
  5
1CC
 10
2.5
 20
15.9
 30
0.0
 42
0.414214
  0
VERTEX
  8
200UB22
  5
1CD
 10
11.4
 20
7.0
 30
0.0
  0
VERTEX
  8
200UB22
  5
1CE
 10
66.5
 20
7.0
 30
0.0
  0
VERTEX
  8
200UB22
  5
1CF
 10
66.5
 20
0.0
 30
0.0
  0
VERTEX
  8
200UB22
  5
1D0
 10
-66.5
 20
0.0
 30
0.0
  0
VERTEX
  8
200UB22
  5
1D1
 10
-66.5
 20
7.0
 30
0.0
  0
VERTEX
  8
200UB22
  5
1D2
 10
-11.4
 20
7.0
 30
0.0
 42
0.414214
  0
VERTEX
  8
200UB22
  5
1D3
 10
-2.5
 20
15.9
 30
0.0
  0
VERTEX
  8
200UB22
  5
1D4
 10
-2.5
 20
186.1
 30
0.0
 42
0.414214
  0
VERTEX
  8
200UB22
  5
1D5
 10
-11.4
 20
195.0
 30
0.0
  0
VERTEX
  8
200UB22
  5
1D6
 10
-66.5
 20
195.0
 30
0.0
  0
VERTEX
  8
200UB22
  5
1D7
 10
-66.5
 20
202.0
 30
0.0
  0
SEQEND
  8
200UB22
  5
1C8
  0
POLYLINE
  8
200UB25
  5
1B1
 66
     1
 10
0.0
 20
0.0
 30
0.0
 70
     1
  0
VERTEX
  8
200UB25
  5
1B2
 10
-66.5
 20
203.0
 30
0.0
  0
VERTEX
  8
200UB25
  5
1B3
 10
66.5
 20
203.0
 30
0.0
  0
VERTEX
  8
200UB25
  5
1B5
 10
66.5
 20
195.2
 30
0.0
  0
VERTEX
  8
200UB25
  5
1B6
 10
11.8
 20
195.2
 30
0.0
 42
0.414214
  0
VERTEX
  8
200UB25
  5
1B7
 10
2.9
 20
186.3
 30
0.0
  0
VERTEX
  8
200UB25
  5
1B8
 10
2.9
 20
16.7
 30
0.0
 42
0.414214
  0
VERTEX
  8
200UB25
  5
1B9
 10
11.8
 20
7.8
 30
0.0
  0
VERTEX
  8
200UB25
  5
1BA
 10
66.5
 20
7.8
 30
0.0
  0
VERTEX
  8
200UB25
  5
1BB
 10
66.5
 20
0.0
 30
0.0
  0
VERTEX
  8
200UB25
  5
1BC
 10
-66.5
 20
0.0
 30
0.0
  0
VERTEX
  8
200UB25
  5
1BD
 10
-66.5
 20
7.8
 30
0.0
  0
VERTEX
  8
200UB25
  5
1BE
 10
-11.8
 20
7.8
 30
0.0
 42
0.414214
  0
VERTEX
  8
200UB25
  5
1BF
 10
-2.9
 20
16.7
 30
0.0
  0
VERTEX
  8
200UB25
  5
1C0
 10
-2.9
 20
186.3
 30
0.0
 42
0.414214
  0
VERTEX
  8
200UB25
  5
1C1
 10
-11.8
 20
195.2
 30
0.0
  0
VERTEX
  8
200UB25
  5
1C2
 10
-66.5
 20
195.2
 30
0.0
  0
VERTEX
  8
200UB25
  5
1C3
 10
-66.5
 20
203.0
 30
0.0
  0
SEQEND
  8
200UB25
  5
1B4
  0
POLYLINE
  8
200UB30
  5
19D
 66
     1
 10
0.0
 20
0.0
 30
0.0
 70
     1
  0
VERTEX
  8
200UB30
  5
19E
 10
-67.0
 20
207.0
 30
0.0
  0
VERTEX
  8
200UB30
  5
19F
 10
67.0
 20
207.0
 30
0.0
  0
VERTEX
  8
200UB30
  5
1A1
 10
67.0
 20
197.4
 30
0.0
  0
VERTEX
  8
200UB30
  5
1A2
 10
12.05
 20
197.4
 30
0.0
 42
0.414214
  0
VERTEX
  8
200UB30
  5
1A3
 10
3.15
 20
188.5
 30
0.0
  0
VERTEX
  8
200UB30
  5
1A4
 10
3.15
 20
18.5
 30
0.0
 42
0.414214
  0
VERTEX
  8
200UB30
  5
1A5
 10
12.05
 20
9.6
 30
0.0
  0
VERTEX
  8
200UB30
  5
1A6
 10
67.0
 20
9.6
 30
0.0
  0
VERTEX
  8
200UB30
  5
1A7
 10
67.0
 20
0.0
 30
0.0
  0
VERTEX
  8
200UB30
  5
1A8
 10
-67.0
 20
0.0
 30
0.0
  0
VERTEX
  8
200UB30
  5
1A9
 10
-67.0
 20
9.6
 30
0.0
  0
VERTEX
  8
200UB30
  5
1AA
 10
-12.05
 20
9.6
 30
0.0
 42
0.414214
  0
VERTEX
  8
200UB30
  5
1AB
 10
-3.15
 20
18.5
 30
0.0
  0
VERTEX
  8
200UB30
  5
1AC
 10
-3.15
 20
188.5
 30
0.0
 42
0.414214
  0
VERTEX
  8
200UB30
  5
1AD
 10
-12.05
 20
197.4
 30
0.0
  0
VERTEX
  8
200UB30
  5
1AE
 10
-67.0
 20
197.4
 30
0.0
  0
VERTEX
  8
200UB30
  5
1AF
 10
-67.0
 20
207.0
 30
0.0
  0
SEQEND
  8
200UB30
  5
1A0
  0
POLYLINE
  8
250UB26
  5
189
 66
     1
 10
0.0
 20
0.0
 30
0.0
 70
     1
  0
VERTEX
  8
250UB26
  5
18A
 10
-62.0
 20
248.0
 30
0.0
  0
VERTEX
  8
250UB26
  5
18B
 10
62.0
 20
248.0
 30
0.0
  0
VERTEX
  8
250UB26
  5
18D
 10
62.0
 20
240.0
 30
0.0
  0
VERTEX
  8
250UB26
  5
18E
 10
14.5
 20
240.0
 30
0.0
 42
0.414214
  0
VERTEX
  8
250UB26
  5
18F
 10
2.5
 20
228.0
 30
0.0
  0
VERTEX
  8
250UB26
  5
190
 10
2.5
 20
20.0
 30
0.0
 42
0.414214
  0
VERTEX
  8
250UB26
  5
191
 10
14.5
 20
8.0
 30
0.0
  0
VERTEX
  8
250UB26
  5
192
 10
62.0
 20
8.0
 30
0.0
  0
VERTEX
  8
250UB26
  5
193
 10
62.0
 20
0.0
 30
0.0
  0
VERTEX
  8
250UB26
  5
194
 10
-62.0
 20
0.0
 30
0.0
  0
VERTEX
  8
250UB26
  5
195
 10
-62.0
 20
8.0
 30
0.0
  0
VERTEX
  8
250UB26
  5
196
 10
-14.5
 20
8.0
 30
0.0
 42
0.414214
  0
VERTEX
  8
250UB26
  5
197
 10
-2.5
 20
20.0
 30
0.0
  0
VERTEX
  8
250UB26
  5
198
 10
-2.5
 20
228.0
 30
0.0
 42
0.414214
  0
VERTEX
  8
250UB26
  5
199
 10
-14.5
 20
240.0
 30
0.0
  0
VERTEX
  8
250UB26
  5
19A
 10
-62.0
 20
240.0
 30
0.0
  0
VERTEX
  8
250UB26
  5
19B
 10
-62.0
 20
248.0
 30
0.0
  0
SEQEND
  8
250UB26
  5
18C
  0
POLYLINE
  8
250UB31
  5
175
 66
     1
 10
0.0
 20
0.0
 30
0.0
 70
     1
  0
VERTEX
  8
250UB31
  5
176
 10
-73.0
 20
252.0
 30
0.0
  0
VERTEX
  8
250UB31
  5
177
 10
73.0
 20
252.0
 30
0.0
  0
VERTEX
  8
250UB31
  5
179
 10
73.0
 20
243.4
 30
0.0
  0
VERTEX
  8
250UB31
  5
17A
 10
11.95
 20
243.4
 30
0.0
 42
0.414214
  0
VERTEX
  8
250UB31
  5
17B
 10
3.05
 20
234.5
 30
0.0
  0
VERTEX
  8
250UB31
  5
17C
 10
3.05
 20
17.5
 30
0.0
 42
0.414214
  0
VERTEX
  8
250UB31
  5
17D
 10
11.95
 20
8.6
 30
0.0
  0
VERTEX
  8
250UB31
  5
17E
 10
73.0
 20
8.6
 30
0.0
  0
VERTEX
  8
250UB31
  5
17F
 10
73.0
 20
0.0
 30
0.0
  0
VERTEX
  8
250UB31
  5
180
 10
-73.0
 20
0.0
 30
0.0
  0
VERTEX
  8
250UB31
  5
181
 10
-73.0
 20
8.6
 30
0.0
  0
VERTEX
  8
250UB31
  5
182
 10
-11.95
 20
8.6
 30
0.0
 42
0.414214
  0
VERTEX
  8
250UB31
  5
183
 10
-3.05
 20
17.5
 30
0.0
  0
VERTEX
  8
250UB31
  5
184
 10
-3.05
 20
234.5
 30
0.0
 42
0.414214
  0
VERTEX
  8
250UB31
  5
185
 10
-11.95
 20
243.4
 30
0.0
  0
VERTEX
  8
250UB31
  5
186
 10
-73.0
 20
243.4
 30
0.0
  0
VERTEX
  8
250UB31
  5
187
 10
-73.0
 20
252.0
 30
0.0
  0
SEQEND
  8
250UB31
  5
178
  0
POLYLINE
  8
250UB37
  5
161
 66
     1
 10
0.0
 20
0.0
 30
0.0
 70
     1
  0
VERTEX
  8
250UB37
  5
162
 10
-73.0
 20
256.0
 30
0.0
  0
VERTEX
  8
250UB37
  5
163
 10
73.0
 20
256.0
 30
0.0
  0
VERTEX
  8
250UB37
  5
165
 10
73.0
 20
245.1
 30
0.0
  0
VERTEX
  8
250UB37
  5
166
 10
12.1
 20
245.1
 30
0.0
 42
0.414214
  0
VERTEX
  8
250UB37
  5
167
 10
3.2
 20
236.2
 30
0.0
  0
VERTEX
  8
250UB37
  5
168
 10
3.2
 20
19.8
 30
0.0
 42
0.414214
  0
VERTEX
  8
250UB37
  5
169
 10
12.1
 20
10.9
 30
0.0
  0
VERTEX
  8
250UB37
  5
16A
 10
73.0
 20
10.9
 30
0.0
  0
VERTEX
  8
250UB37
  5
16B
 10
73.0
 20
0.0
 30
0.0
  0
VERTEX
  8
250UB37
  5
16C
 10
-73.0
 20
0.0
 30
0.0
  0
VERTEX
  8
250UB37
  5
16D
 10
-73.0
 20
10.9
 30
0.0
  0
VERTEX
  8
250UB37
  5
16E
 10
-12.1
 20
10.9
 30
0.0
 42
0.414214
  0
VERTEX
  8
250UB37
  5
16F
 10
-3.2
 20
19.8
 30
0.0
  0
VERTEX
  8
250UB37
  5
170
 10
-3.2
 20
236.2
 30
0.0
 42
0.414214
  0
VERTEX
  8
250UB37
  5
171
 10
-12.1
 20
245.1
 30
0.0
  0
VERTEX
  8
250UB37
  5
172
 10
-73.0
 20
245.1
 30
0.0
  0
VERTEX
  8
250UB37
  5
173
 10
-73.0
 20
256.0
 30
0.0
  0
SEQEND
  8
250UB37
  5
164
  0
POLYLINE
  8
310UB32
  5
14D
 66
     1
 10
0.0
 20
0.0
 30
0.0
 70
     1
  0
VERTEX
  8
310UB32
  5
14E
 10
-74.5
 20
298.0
 30
0.0
  0
VERTEX
  8
310UB32
  5
14F
 10
74.5
 20
298.0
 30
0.0
  0
VERTEX
  8
310UB32
  5
151
 10
74.5
 20
290.0
 30
0.0
  0
VERTEX
  8
310UB32
  5
152
 10
15.75
 20
290.0
 30
0.0
 42
0.414214
  0
VERTEX
  8
310UB32
  5
153
 10
2.75
 20
277.0
 30
0.0
  0
VERTEX
  8
310UB32
  5
154
 10
2.75
 20
21.0
 30
0.0
 42
0.414214
  0
VERTEX
  8
310UB32
  5
155
 10
15.75
 20
8.0
 30
0.0
  0
VERTEX
  8
310UB32
  5
156
 10
74.5
 20
8.0
 30
0.0
  0
VERTEX
  8
310UB32
  5
157
 10
74.5
 20
0.0
 30
0.0
  0
VERTEX
  8
310UB32
  5
158
 10
-74.5
 20
0.0
 30
0.0
  0
VERTEX
  8
310UB32
  5
159
 10
-74.5
 20
8.0
 30
0.0
  0
VERTEX
  8
310UB32
  5
15A
 10
-15.75
 20
8.0
 30
0.0
 42
0.414214
  0
VERTEX
  8
310UB32
  5
15B
 10
-2.75
 20
21.0
 30
0.0
  0
VERTEX
  8
310UB32
  5
15C
 10
-2.75
 20
277.0
 30
0.0
 42
0.414214
  0
VERTEX
  8
310UB32
  5
15D
 10
-15.75
 20
290.0
 30
0.0
  0
VERTEX
  8
310UB32
  5
15E
 10
-74.5
 20
290.0
 30
0.0
  0
VERTEX
  8
310UB32
  5
15F
 10
-74.5
 20
298.0
 30
0.0
  0
SEQEND
  8
310UB32
  5
150
  0
POLYLINE
  8
310UB40
  5
139
 66
     1
 10
0.0
 20
0.0
 30
0.0
 70
     1
  0
VERTEX
  8
310UB40
  5
13A
 10
-82.5
 20
304.0
 30
0.0
  0
VERTEX
  8
310UB40
  5
13B
 10
82.5
 20
304.0
 30
0.0
  0
VERTEX
  8
310UB40
  5
13D
 10
82.5
 20
293.8
 30
0.0
  0
VERTEX
  8
310UB40
  5
13E
 10
14.45
 20
293.8
 30
0.0
 42
0.414214
  0
VERTEX
  8
310UB40
  5
13F
 10
3.05
 20
282.4
 30
0.0
  0
VERTEX
  8
310UB40
  5
140
 10
3.05
 20
21.6
 30
0.0
 42
0.414214
  0
VERTEX
  8
310UB40
  5
141
 10
14.45
 20
10.2
 30
0.0
  0
VERTEX
  8
310UB40
  5
142
 10
82.5
 20
10.2
 30
0.0
  0
VERTEX
  8
310UB40
  5
143
 10
82.5
 20
0.0
 30
0.0
  0
VERTEX
  8
310UB40
  5
144
 10
-82.5
 20
0.0
 30
0.0
  0
VERTEX
  8
310UB40
  5
145
 10
-82.5
 20
10.2
 30
0.0
  0
VERTEX
  8
310UB40
  5
146
 10
-14.45
 20
10.2
 30
0.0
 42
0.414214
  0
VERTEX
  8
310UB40
  5
147
 10
-3.05
 20
21.6
 30
0.0
  0
VERTEX
  8
310UB40
  5
148
 10
-3.05
 20
282.4
 30
0.0
 42
0.414214
  0
VERTEX
  8
310UB40
  5
149
 10
-14.45
 20
293.8
 30
0.0
  0
VERTEX
  8
310UB40
  5
14A
 10
-82.5
 20
293.8
 30
0.0
  0
VERTEX
  8
310UB40
  5
14B
 10
-82.5
 20
304.0
 30
0.0
  0
SEQEND
  8
310UB40
  5
13C
  0
POLYLINE
  8
310UB46
  5
125
 66
     1
 10
0.0
 20
0.0
 30
0.0
 70
     1
  0
VERTEX
  8
310UB46
  5
126
 10
-83.0
 20
307.0
 30
0.0
  0
VERTEX
  8
310UB46
  5
127
 10
83.0
 20
307.0
 30
0.0
  0
VERTEX
  8
310UB46
  5
129
 10
83.0
 20
295.2
 30
0.0
  0
VERTEX
  8
310UB46
  5
12A
 10
14.75
 20
295.2
 30
0.0
 42
0.414214
  0
VERTEX
  8
310UB46
  5
12B
 10
3.35
 20
283.8
 30
0.0
  0
VERTEX
  8
310UB46
  5
12C
 10
3.35
 20
23.2
 30
0.0
 42
0.414214
  0
VERTEX
  8
310UB46
  5
12D
 10
14.75
 20
11.8
 30
0.0
  0
VERTEX
  8
310UB46
  5
12E
 10
83.0
 20
11.8
 30
0.0
  0
VERTEX
  8
310UB46
  5
12F
 10
83.0
 20
0.0
 30
0.0
  0
VERTEX
  8
310UB46
  5
130
 10
-83.0
 20
0.0
 30
0.0
  0
VERTEX
  8
310UB46
  5
131
 10
-83.0
 20
11.8
 30
0.0
  0
VERTEX
  8
310UB46
  5
132
 10
-14.75
 20
11.8
 30
0.0
 42
0.414214
  0
VERTEX
  8
310UB46
  5
133
 10
-3.35
 20
23.2
 30
0.0
  0
VERTEX
  8
310UB46
  5
134
 10
-3.35
 20
283.8
 30
0.0
 42
0.414214
  0
VERTEX
  8
310UB46
  5
135
 10
-14.75
 20
295.2
 30
0.0
  0
VERTEX
  8
310UB46
  5
136
 10
-83.0
 20
295.2
 30
0.0
  0
VERTEX
  8
310UB46
  5
137
 10
-83.0
 20
307.0
 30
0.0
  0
SEQEND
  8
310UB46
  5
128
  0
POLYLINE
  8
360UB45
  5
111
 66
     1
 10
0.0
 20
0.0
 30
0.0
 70
     1
  0
VERTEX
  8
360UB45
  5
112
 10
-85.5
 20
352.0
 30
0.0
  0
VERTEX
  8
360UB45
  5
113
 10
85.5
 20
352.0
 30
0.0
  0
VERTEX
  8
360UB45
  5
115
 10
85.5
 20
342.3
 30
0.0
  0
VERTEX
  8
360UB45
  5
116
 10
14.85
 20
342.3
 30
0.0
 42
0.414214
  0
VERTEX
  8
360UB45
  5
117
 10
3.45
 20
330.9
 30
0.0
  0
VERTEX
  8
360UB45
  5
118
 10
3.45
 20
21.1
 30
0.0
 42
0.414214
  0
VERTEX
  8
360UB45
  5
119
 10
14.85
 20
9.7
 30
0.0
  0
VERTEX
  8
360UB45
  5
11A
 10
85.5
 20
9.7
 30
0.0
  0
VERTEX
  8
360UB45
  5
11B
 10
85.5
 20
0.0
 30
0.0
  0
VERTEX
  8
360UB45
  5
11C
 10
-85.5
 20
0.0
 30
0.0
  0
VERTEX
  8
360UB45
  5
11D
 10
-85.5
 20
9.7
 30
0.0
  0
VERTEX
  8
360UB45
  5
11E
 10
-14.85
 20
9.7
 30
0.0
 42
0.414214
  0
VERTEX
  8
360UB45
  5
11F
 10
-3.45
 20
21.1
 30
0.0
  0
VERTEX
  8
360UB45
  5
120
 10
-3.45
 20
330.9
 30
0.0
 42
0.414214
  0
VERTEX
  8
360UB45
  5
121
 10
-14.85
 20
342.3
 30
0.0
  0
VERTEX
  8
360UB45
  5
122
 10
-85.5
 20
342.3
 30
0.0
  0
VERTEX
  8
360UB45
  5
123
 10
-85.5
 20
352.0
 30
0.0
  0
SEQEND
  8
360UB45
  5
114
  0
POLYLINE
  8
360UB51
  5
FD
 66
     1
 10
0.0
 20
0.0
 30
0.0
 70
     1
  0
VERTEX
  8
360UB51
  5
FE
 10
-85.5
 20
356.0
 30
0.0
  0
VERTEX
  8
360UB51
  5
FF
 10
85.5
 20
356.0
 30
0.0
  0
VERTEX
  8
360UB51
  5
101
 10
85.5
 20
344.5
 30
0.0
  0
VERTEX
  8
360UB51
  5
102
 10
15.05
 20
344.5
 30
0.0
 42
0.414214
  0
VERTEX
  8
360UB51
  5
103
 10
3.65
 20
333.1
 30
0.0
  0
VERTEX
  8
360UB51
  5
104
 10
3.65
 20
22.9
 30
0.0
 42
0.414214
  0
VERTEX
  8
360UB51
  5
105
 10
15.05
 20
11.5
 30
0.0
  0
VERTEX
  8
360UB51
  5
106
 10
85.5
 20
11.5
 30
0.0
  0
VERTEX
  8
360UB51
  5
107
 10
85.5
 20
0.0
 30
0.0
  0
VERTEX
  8
360UB51
  5
108
 10
-85.5
 20
0.0
 30
0.0
  0
VERTEX
  8
360UB51
  5
109
 10
-85.5
 20
11.5
 30
0.0
  0
VERTEX
  8
360UB51
  5
10A
 10
-15.05
 20
11.5
 30
0.0
 42
0.414214
  0
VERTEX
  8
360UB51
  5
10B
 10
-3.65
 20
22.9
 30
0.0
  0
VERTEX
  8
360UB51
  5
10C
 10
-3.65
 20
333.1
 30
0.0
 42
0.414214
  0
VERTEX
  8
360UB51
  5
10D
 10
-15.05
 20
344.5
 30
0.0
  0
VERTEX
  8
360UB51
  5
10E
 10
-85.5
 20
344.5
 30
0.0
  0
VERTEX
  8
360UB51
  5
10F
 10
-85.5
 20
356.0
 30
0.0
  0
SEQEND
  8
360UB51
  5
100
  0
POLYLINE
  8
360UB57
  5
E9
 66
     1
 10
0.0
 20
0.0
 30
0.0
 70
     1
  0
VERTEX
  8
360UB57
  5
EA
 10
-86.0
 20
359.0
 30
0.0
  0
VERTEX
  8
360UB57
  5
EB
 10
86.0
 20
359.0
 30
0.0
  0
VERTEX
  8
360UB57
  5
ED
 10
86.0
 20
346.0
 30
0.0
  0
VERTEX
  8
360UB57
  5
EE
 10
15.4
 20
346.0
 30
0.0
 42
0.414214
  0
VERTEX
  8
360UB57
  5
EF
 10
4.0
 20
334.6
 30
0.0
  0
VERTEX
  8
360UB57
  5
F0
 10
4.0
 20
24.4
 30
0.0
 42
0.414214
  0
VERTEX
  8
360UB57
  5
F1
 10
15.4
 20
13.0
 30
0.0
  0
VERTEX
  8
360UB57
  5
F2
 10
86.0
 20
13.0
 30
0.0
  0
VERTEX
  8
360UB57
  5
F3
 10
86.0
 20
0.0
 30
0.0
  0
VERTEX
  8
360UB57
  5
F4
 10
-86.0
 20
0.0
 30
0.0
  0
VERTEX
  8
360UB57
  5
F5
 10
-86.0
 20
13.0
 30
0.0
  0
VERTEX
  8
360UB57
  5
F6
 10
-15.4
 20
13.0
 30
0.0
 42
0.414214
  0
VERTEX
  8
360UB57
  5
F7
 10
-4.0
 20
24.4
 30
0.0
  0
VERTEX
  8
360UB57
  5
F8
 10
-4.0
 20
334.6
 30
0.0
 42
0.414214
  0
VERTEX
  8
360UB57
  5
F9
 10
-15.4
 20
346.0
 30
0.0
  0
VERTEX
  8
360UB57
  5
FA
 10
-86.0
 20
346.0
 30
0.0
  0
VERTEX
  8
360UB57
  5
FB
 10
-86.0
 20
359.0
 30
0.0
  0
SEQEND
  8
360UB57
  5
EC
  0
POLYLINE
  8
410UB54
  5
D5
 66
     1
 10
0.0
 20
0.0
 30
0.0
 70
     1
  0
VERTEX
  8
410UB54
  5
D6
 10
-89.0
 20
403.0
 30
0.0
  0
VERTEX
  8
410UB54
  5
D7
 10
89.0
 20
403.0
 30
0.0
  0
VERTEX
  8
410UB54
  5
D9
 10
89.0
 20
392.1
 30
0.0
  0
VERTEX
  8
410UB54
  5
DA
 10
15.2
 20
392.1
 30
0.0
 42
0.414214
  0
VERTEX
  8
410UB54
  5
DB
 10
3.8
 20
380.7
 30
0.0
  0
VERTEX
  8
410UB54
  5
DC
 10
3.8
 20
22.3
 30
0.0
 42
0.414214
  0
VERTEX
  8
410UB54
  5
DD
 10
15.2
 20
10.9
 30
0.0
  0
VERTEX
  8
410UB54
  5
DE
 10
89.0
 20
10.9
 30
0.0
  0
VERTEX
  8
410UB54
  5
DF
 10
89.0
 20
0.0
 30
0.0
  0
VERTEX
  8
410UB54
  5
E0
 10
-89.0
 20
0.0
 30
0.0
  0
VERTEX
  8
410UB54
  5
E1
 10
-89.0
 20
10.9
 30
0.0
  0
VERTEX
  8
410UB54
  5
E2
 10
-15.2
 20
10.9
 30
0.0
 42
0.414214
  0
VERTEX
  8
410UB54
  5
E3
 10
-3.8
 20
22.3
 30
0.0
  0
VERTEX
  8
410UB54
  5
E4
 10
-3.8
 20
380.7
 30
0.0
 42
0.414214
  0
VERTEX
  8
410UB54
  5
E5
 10
-15.2
 20
392.1
 30
0.0
  0
VERTEX
  8
410UB54
  5
E6
 10
-89.0
 20
392.1
 30
0.0
  0
VERTEX
  8
410UB54
  5
E7
 10
-89.0
 20
403.0
 30
0.0
  0
SEQEND
  8
410UB54
  5
D8
  0
POLYLINE
  8
410UB60
  5
C1
 66
     1
 10
0.0
 20
0.0
 30
0.0
 70
     1
  0
VERTEX
  8
410UB60
  5
C2
 10
-89.0
 20
406.0
 30
0.0
  0
VERTEX
  8
410UB60
  5
C3
 10
89.0
 20
406.0
 30
0.0
  0
VERTEX
  8
410UB60
  5
C5
 10
89.0
 20
393.2
 30
0.0
  0
VERTEX
  8
410UB60
  5
C6
 10
15.3
 20
393.2
 30
0.0
 42
0.414214
  0
VERTEX
  8
410UB60
  5
C7
 10
3.9
 20
381.8
 30
0.0
  0
VERTEX
  8
410UB60
  5
C8
 10
3.9
 20
24.2
 30
0.0
 42
0.414214
  0
VERTEX
  8
410UB60
  5
C9
 10
15.3
 20
12.8
 30
0.0
  0
VERTEX
  8
410UB60
  5
CA
 10
89.0
 20
12.8
 30
0.0
  0
VERTEX
  8
410UB60
  5
CB
 10
89.0
 20
0.0
 30
0.0
  0
VERTEX
  8
410UB60
  5
CC
 10
-89.0
 20
0.0
 30
0.0
  0
VERTEX
  8
410UB60
  5
CD
 10
-89.0
 20
12.8
 30
0.0
  0
VERTEX
  8
410UB60
  5
CE
 10
-15.3
 20
12.8
 30
0.0
 42
0.414214
  0
VERTEX
  8
410UB60
  5
CF
 10
-3.9
 20
24.2
 30
0.0
  0
VERTEX
  8
410UB60
  5
D0
 10
-3.9
 20
381.8
 30
0.0
 42
0.414214
  0
VERTEX
  8
410UB60
  5
D1
 10
-15.3
 20
393.2
 30
0.0
  0
VERTEX
  8
410UB60
  5
D2
 10
-89.0
 20
393.2
 30
0.0
  0
VERTEX
  8
410UB60
  5
D3
 10
-89.0
 20
406.0
 30
0.0
  0
SEQEND
  8
410UB60
  5
C4
  0
POLYLINE
  8
460UB67
  5
AD
 66
     1
 10
0.0
 20
0.0
 30
0.0
 70
     1
  0
VERTEX
  8
460UB67
  5
AE
 10
-95.0
 20
454.0
 30
0.0
  0
VERTEX
  8
460UB67
  5
AF
 10
95.0
 20
454.0
 30
0.0
  0
VERTEX
  8
460UB67
  5
B1
 10
95.0
 20
441.3
 30
0.0
  0
VERTEX
  8
460UB67
  5
B2
 10
15.65
 20
441.3
 30
0.0
 42
0.414214
  0
VERTEX
  8
460UB67
  5
B3
 10
4.25
 20
429.9
 30
0.0
  0
VERTEX
  8
460UB67
  5
B4
 10
4.25
 20
24.1
 30
0.0
 42
0.414214
  0
VERTEX
  8
460UB67
  5
B5
 10
15.65
 20
12.7
 30
0.0
  0
VERTEX
  8
460UB67
  5
B6
 10
95.0
 20
12.7
 30
0.0
  0
VERTEX
  8
460UB67
  5
B7
 10
95.0
 20
0.0
 30
0.0
  0
VERTEX
  8
460UB67
  5
B8
 10
-95.0
 20
0.0
 30
0.0
  0
VERTEX
  8
460UB67
  5
B9
 10
-95.0
 20
12.7
 30
0.0
  0
VERTEX
  8
460UB67
  5
BA
 10
-15.65
 20
12.7
 30
0.0
 42
0.414214
  0
VERTEX
  8
460UB67
  5
BB
 10
-4.25
 20
24.1
 30
0.0
  0
VERTEX
  8
460UB67
  5
BC
 10
-4.25
 20
429.9
 30
0.0
 42
0.414214
  0
VERTEX
  8
460UB67
  5
BD
 10
-15.65
 20
441.3
 30
0.0
  0
VERTEX
  8
460UB67
  5
BE
 10
-95.0
 20
441.3
 30
0.0
  0
VERTEX
  8
460UB67
  5
BF
 10
-95.0
 20
454.0
 30
0.0
  0
SEQEND
  8
460UB67
  5
B0
  0
POLYLINE
  8
460UB74
  5
99
 66
     1
 10
0.0
 20
0.0
 30
0.0
 70
     1
  0
VERTEX
  8
460UB74
  5
9A
 10
-95.0
 20
457.0
 30
0.0
  0
VERTEX
  8
460UB74
  5
9B
 10
95.0
 20
457.0
 30
0.0
  0
VERTEX
  8
460UB74
  5
9D
 10
95.0
 20
442.5
 30
0.0
  0
VERTEX
  8
460UB74
  5
9E
 10
15.95
 20
442.5
 30
0.0
 42
0.414214
  0
VERTEX
  8
460UB74
  5
9F
 10
4.55
 20
431.1
 30
0.0
  0
VERTEX
  8
460UB74
  5
A0
 10
4.55
 20
25.9
 30
0.0
 42
0.414214
  0
VERTEX
  8
460UB74
  5
A1
 10
15.95
 20
14.5
 30
0.0
  0
VERTEX
  8
460UB74
  5
A2
 10
95.0
 20
14.5
 30
0.0
  0
VERTEX
  8
460UB74
  5
A3
 10
95.0
 20
0.0
 30
0.0
  0
VERTEX
  8
460UB74
  5
A4
 10
-95.0
 20
0.0
 30
0.0
  0
VERTEX
  8
460UB74
  5
A5
 10
-95.0
 20
14.5
 30
0.0
  0
VERTEX
  8
460UB74
  5
A6
 10
-15.95
 20
14.5
 30
0.0
 42
0.414214
  0
VERTEX
  8
460UB74
  5
A7
 10
-4.55
 20
25.9
 30
0.0
  0
VERTEX
  8
460UB74
  5
A8
 10
-4.55
 20
431.1
 30
0.0
 42
0.414214
  0
VERTEX
  8
460UB74
  5
A9
 10
-15.95
 20
442.5
 30
0.0
  0
VERTEX
  8
460UB74
  5
AA
 10
-95.0
 20
442.5
 30
0.0
  0
VERTEX
  8
460UB74
  5
AB
 10
-95.0
 20
457.0
 30
0.0
  0
SEQEND
  8
460UB74
  5
9C
  0
POLYLINE
  8
460UB82
  5
85
 66
     1
 10
0.0
 20
0.0
 30
0.0
 70
     1
  0
VERTEX
  8
460UB82
  5
86
 10
-95.5
 20
460.0
 30
0.0
  0
VERTEX
  8
460UB82
  5
87
 10
95.5
 20
460.0
 30
0.0
  0
VERTEX
  8
460UB82
  5
89
 10
95.5
 20
444.0
 30
0.0
  0
VERTEX
  8
460UB82
  5
8A
 10
16.35
 20
444.0
 30
0.0
 42
0.414214
  0
VERTEX
  8
460UB82
  5
8B
 10
4.95
 20
432.6
 30
0.0
  0
VERTEX
  8
460UB82
  5
8C
 10
4.95
 20
27.4
 30
0.0
 42
0.414214
  0
VERTEX
  8
460UB82
  5
8D
 10
16.35
 20
16.0
 30
0.0
  0
VERTEX
  8
460UB82
  5
8E
 10
95.5
 20
16.0
 30
0.0
  0
VERTEX
  8
460UB82
  5
8F
 10
95.5
 20
0.0
 30
0.0
  0
VERTEX
  8
460UB82
  5
90
 10
-95.5
 20
0.0
 30
0.0
  0
VERTEX
  8
460UB82
  5
91
 10
-95.5
 20
16.0
 30
0.0
  0
VERTEX
  8
460UB82
  5
92
 10
-16.35
 20
16.0
 30
0.0
 42
0.414214
  0
VERTEX
  8
460UB82
  5
93
 10
-4.95
 20
27.4
 30
0.0
  0
VERTEX
  8
460UB82
  5
94
 10
-4.95
 20
432.6
 30
0.0
 42
0.414214
  0
VERTEX
  8
460UB82
  5
95
 10
-16.35
 20
444.0
 30
0.0
  0
VERTEX
  8
460UB82
  5
96
 10
-95.5
 20
444.0
 30
0.0
  0
VERTEX
  8
460UB82
  5
97
 10
-95.5
 20
460.0
 30
0.0
  0
SEQEND
  8
460UB82
  5
88
  0
POLYLINE
  8
530UB82
  5
71
 66
     1
 10
0.0
 20
0.0
 30
0.0
 70
     1
  0
VERTEX
  8
530UB82
  5
72
 10
-104.5
 20
528.0
 30
0.0
  0
VERTEX
  8
530UB82
  5
73
 10
104.5
 20
528.0
 30
0.0
  0
VERTEX
  8
530UB82
  5
75
 10
104.5
 20
514.8
 30
0.0
  0
VERTEX
  8
530UB82
  5
76
 10
18.8
 20
514.8
 30
0.0
 42
0.414214
  0
VERTEX
  8
530UB82
  5
77
 10
4.8
 20
500.8
 30
0.0
  0
VERTEX
  8
530UB82
  5
78
 10
4.8
 20
27.2
 30
0.0
 42
0.414214
  0
VERTEX
  8
530UB82
  5
79
 10
18.8
 20
13.2
 30
0.0
  0
VERTEX
  8
530UB82
  5
7A
 10
104.5
 20
13.2
 30
0.0
  0
VERTEX
  8
530UB82
  5
7B
 10
104.5
 20
0.0
 30
0.0
  0
VERTEX
  8
530UB82
  5
7C
 10
-104.5
 20
0.0
 30
0.0
  0
VERTEX
  8
530UB82
  5
7D
 10
-104.5
 20
13.2
 30
0.0
  0
VERTEX
  8
530UB82
  5
7E
 10
-18.8
 20
13.2
 30
0.0
 42
0.414214
  0
VERTEX
  8
530UB82
  5
7F
 10
-4.8
 20
27.2
 30
0.0
  0
VERTEX
  8
530UB82
  5
80
 10
-4.8
 20
500.8
 30
0.0
 42
0.414214
  0
VERTEX
  8
530UB82
  5
81
 10
-18.8
 20
514.8
 30
0.0
  0
VERTEX
  8
530UB82
  5
82
 10
-104.5
 20
514.8
 30
0.0
  0
VERTEX
  8
530UB82
  5
83
 10
-104.5
 20
528.0
 30
0.0
  0
SEQEND
  8
530UB82
  5
74
  0
POLYLINE
  8
530UB92
  5
5D
 66
     1
 10
0.0
 20
0.0
 30
0.0
 70
     1
  0
VERTEX
  8
530UB92
  5
5E
 10
-104.5
 20
533.0
 30
0.0
  0
VERTEX
  8
530UB92
  5
5F
 10
104.5
 20
533.0
 30
0.0
  0
VERTEX
  8
530UB92
  5
61
 10
104.5
 20
517.4
 30
0.0
  0
VERTEX
  8
530UB92
  5
62
 10
19.1
 20
517.4
 30
0.0
 42
0.414214
  0
VERTEX
  8
530UB92
  5
63
 10
5.1
 20
503.4
 30
0.0
  0
VERTEX
  8
530UB92
  5
64
 10
5.1
 20
29.6
 30
0.0
 42
0.414214
  0
VERTEX
  8
530UB92
  5
65
 10
19.1
 20
15.6
 30
0.0
  0
VERTEX
  8
530UB92
  5
66
 10
104.5
 20
15.6
 30
0.0
  0
VERTEX
  8
530UB92
  5
67
 10
104.5
 20
0.0
 30
0.0
  0
VERTEX
  8
530UB92
  5
68
 10
-104.5
 20
0.0
 30
0.0
  0
VERTEX
  8
530UB92
  5
69
 10
-104.5
 20
15.6
 30
0.0
  0
VERTEX
  8
530UB92
  5
6A
 10
-19.1
 20
15.6
 30
0.0
 42
0.414214
  0
VERTEX
  8
530UB92
  5
6B
 10
-5.1
 20
29.6
 30
0.0
  0
VERTEX
  8
530UB92
  5
6C
 10
-5.1
 20
503.4
 30
0.0
 42
0.414214
  0
VERTEX
  8
530UB92
  5
6D
 10
-19.1
 20
517.4
 30
0.0
  0
VERTEX
  8
530UB92
  5
6E
 10
-104.5
 20
517.4
 30
0.0
  0
VERTEX
  8
530UB92
  5
6F
 10
-104.5
 20
533.0
 30
0.0
  0
SEQEND
  8
530UB92
  5
60
  0
POLYLINE
  8
610UB101
  5
49
 66
     1
 10
0.0
 20
0.0
 30
0.0
 70
     1
  0
VERTEX
  8
610UB101
  5
4A
 10
-114.0
 20
602.0
 30
0.0
  0
VERTEX
  8
610UB101
  5
4B
 10
114.0
 20
602.0
 30
0.0
  0
VERTEX
  8
610UB101
  5
4D
 10
114.0
 20
587.2
 30
0.0
  0
VERTEX
  8
610UB101
  5
4E
 10
19.3
 20
587.2
 30
0.0
 42
0.414214
  0
VERTEX
  8
610UB101
  5
4F
 10
5.3
 20
573.2
 30
0.0
  0
VERTEX
  8
610UB101
  5
50
 10
5.3
 20
28.8
 30
0.0
 42
0.414214
  0
VERTEX
  8
610UB101
  5
51
 10
19.3
 20
14.8
 30
0.0
  0
VERTEX
  8
610UB101
  5
52
 10
114.0
 20
14.8
 30
0.0
  0
VERTEX
  8
610UB101
  5
53
 10
114.0
 20
0.0
 30
0.0
  0
VERTEX
  8
610UB101
  5
54
 10
-114.0
 20
0.0
 30
0.0
  0
VERTEX
  8
610UB101
  5
55
 10
-114.0
 20
14.8
 30
0.0
  0
VERTEX
  8
610UB101
  5
56
 10
-19.3
 20
14.8
 30
0.0
 42
0.414214
  0
VERTEX
  8
610UB101
  5
57
 10
-5.3
 20
28.8
 30
0.0
  0
VERTEX
  8
610UB101
  5
58
 10
-5.3
 20
573.2
 30
0.0
 42
0.414214
  0
VERTEX
  8
610UB101
  5
59
 10
-19.3
 20
587.2
 30
0.0
  0
VERTEX
  8
610UB101
  5
5A
 10
-114.0
 20
587.2
 30
0.0
  0
VERTEX
  8
610UB101
  5
5B
 10
-114.0
 20
602.0
 30
0.0
  0
SEQEND
  8
610UB101
  5
4C
  0
POLYLINE
  8
610UB113
  5
35
 66
     1
 10
0.0
 20
0.0
 30
0.0
 70
     1
  0
VERTEX
  8
610UB113
  5
36
 10
-114.0
 20
607.0
 30
0.0
  0
VERTEX
  8
610UB113
  5
37
 10
114.0
 20
607.0
 30
0.0
  0
VERTEX
  8
610UB113
  5
39
 10
114.0
 20
589.7
 30
0.0
  0
VERTEX
  8
610UB113
  5
3A
 10
19.6
 20
589.7
 30
0.0
 42
0.414214
  0
VERTEX
  8
610UB113
  5
3B
 10
5.6
 20
575.7
 30
0.0
  0
VERTEX
  8
610UB113
  5
3C
 10
5.6
 20
31.3
 30
0.0
 42
0.414214
  0
VERTEX
  8
610UB113
  5
3D
 10
19.6
 20
17.3
 30
0.0
  0
VERTEX
  8
610UB113
  5
3E
 10
114.0
 20
17.3
 30
0.0
  0
VERTEX
  8
610UB113
  5
3F
 10
114.0
 20
0.0
 30
0.0
  0
VERTEX
  8
610UB113
  5
40
 10
-114.0
 20
0.0
 30
0.0
  0
VERTEX
  8
610UB113
  5
41
 10
-114.0
 20
17.3
 30
0.0
  0
VERTEX
  8
610UB113
  5
42
 10
-19.6
 20
17.3
 30
0.0
 42
0.414214
  0
VERTEX
  8
610UB113
  5
43
 10
-5.6
 20
31.3
 30
0.0
  0
VERTEX
  8
610UB113
  5
44
 10
-5.6
 20
575.7
 30
0.0
 42
0.414214
  0
VERTEX
  8
610UB113
  5
45
 10
-19.6
 20
589.7
 30
0.0
  0
VERTEX
  8
610UB113
  5
46
 10
-114.0
 20
589.7
 30
0.0
  0
VERTEX
  8
610UB113
  5
47
 10
-114.0
 20
607.0
 30
0.0
  0
SEQEND
  8
610UB113
  5
38
  0
POLYLINE
  8
610UB125
  5
21
 66
     1
 10
0.0
 20
0.0
 30
0.0
 70
     1
  0
VERTEX
  8
610UB125
  5
22
 10
-114.5
 20
612.0
 30
0.0
  0
VERTEX
  8
610UB125
  5
23
 10
114.5
 20
612.0
 30
0.0
  0
VERTEX
  8
610UB125
  5
25
 10
114.5
 20
592.4
 30
0.0
  0
VERTEX
  8
610UB125
  5
26
 10
19.95
 20
592.4
 30
0.0
 42
0.414214
  0
VERTEX
  8
610UB125
  5
27
 10
5.95
 20
578.4
 30
0.0
  0
VERTEX
  8
610UB125
  5
28
 10
5.95
 20
33.6
 30
0.0
 42
0.414214
  0
VERTEX
  8
610UB125
  5
29
 10
19.95
 20
19.6
 30
0.0
  0
VERTEX
  8
610UB125
  5
2A
 10
114.5
 20
19.6
 30
0.0
  0
VERTEX
  8
610UB125
  5
2B
 10
114.5
 20
0.0
 30
0.0
  0
VERTEX
  8
610UB125
  5
2C
 10
-114.5
 20
0.0
 30
0.0
  0
VERTEX
  8
610UB125
  5
2D
 10
-114.5
 20
19.6
 30
0.0
  0
VERTEX
  8
610UB125
  5
2E
 10
-19.95
 20
19.6
 30
0.0
 42
0.414214
  0
VERTEX
  8
610UB125
  5
2F
 10
-5.95
 20
33.6
 30
0.0
  0
VERTEX
  8
610UB125
  5
30
 10
-5.95
 20
578.4
 30
0.0
 42
0.414214
  0
VERTEX
  8
610UB125
  5
31
 10
-19.95
 20
592.4
 30
0.0
  0
VERTEX
  8
610UB125
  5
32
 10
-114.5
 20
592.4
 30
0.0
  0
VERTEX
  8
610UB125
  5
33
 10
-114.5
 20
612.0
 30
0.0
  0
SEQEND
  8
610UB125
  5
24
  0
POLYLINE
  8
150UB14
  5
23D
 66
     1
 10
0.0
 20
0.0
 30
0.0
 70
     1
  0
VERTEX
  8
150UB14
  5
23E
 10
-37.5
 20
150.0
 30
0.0
  0
VERTEX
  8
150UB14
  5
23F
 10
37.5
 20
150.0
 30
0.0
  0
VERTEX
  8
150UB14
  5
241
 10
37.5
 20
143.0
 30
0.0
  0
VERTEX
  8
150UB14
  5
242
 10
10.5
 20
143.0
 30
0.0
 42
0.414214
  0
VERTEX
  8
150UB14
  5
243
 10
2.5
 20
135.0
 30
0.0
  0
VERTEX
  8
150UB14
  5
244
 10
2.5
 20
15.0
 30
0.0
 42
0.414214
  0
VERTEX
  8
150UB14
  5
245
 10
10.5
 20
7.0
 30
0.0
  0
VERTEX
  8
150UB14
  5
246
 10
37.5
 20
7.0
 30
0.0
  0
VERTEX
  8
150UB14
  5
247
 10
37.5
 20
0.0
 30
0.0
  0
VERTEX
  8
150UB14
  5
248
 10
-37.5
 20
0.0
 30
0.0
  0
VERTEX
  8
150UB14
  5
249
 10
-37.5
 20
7.0
 30
0.0
  0
VERTEX
  8
150UB14
  5
24A
 10
-10.5
 20
7.0
 30
0.0
 42
0.414214
  0
VERTEX
  8
150UB14
  5
24B
 10
-2.5
 20
15.0
 30
0.0
  0
VERTEX
  8
150UB14
  5
24C
 10
-2.5
 20
135.0
 30
0.0
 42
0.414214
  0
VERTEX
  8
150UB14
  5
24D
 10
-10.5
 20
143.0
 30
0.0
  0
VERTEX
  8
150UB14
  5
24E
 10
-37.5
 20
143.0
 30
0.0
  0
VERTEX
  8
150UB14
  5
24F
 10
-37.5
 20
150.0
 30
0.0
  0
SEQEND
  8
150UB14
  5
240
  0
POLYLINE
  8
150UB18
  5
229
 66
     1
 10
0.0
 20
0.0
 30
0.0
 70
     1
  0
VERTEX
  8
150UB18
  5
22A
 10
-37.5
 20
155.0
 30
0.0
  0
VERTEX
  8
150UB18
  5
22B
 10
37.5
 20
155.0
 30
0.0
  0
VERTEX
  8
150UB18
  5
22D
 10
37.5
 20
145.5
 30
0.0
  0
VERTEX
  8
150UB18
  5
22E
 10
11.0
 20
145.5
 30
0.0
 42
0.414214
  0
VERTEX
  8
150UB18
  5
22F
 10
3.0
 20
137.5
 30
0.0
  0
VERTEX
  8
150UB18
  5
230
 10
3.0
 20
17.5
 30
0.0
 42
0.414214
  0
VERTEX
  8
150UB18
  5
231
 10
11.0
 20
9.5
 30
0.0
  0
VERTEX
  8
150UB18
  5
232
 10
37.5
 20
9.5
 30
0.0
  0
VERTEX
  8
150UB18
  5
233
 10
37.5
 20
0.0
 30
0.0
  0
VERTEX
  8
150UB18
  5
234
 10
-37.5
 20
0.0
 30
0.0
  0
VERTEX
  8
150UB18
  5
235
 10
-37.5
 20
9.5
 30
0.0
  0
VERTEX
  8
150UB18
  5
236
 10
-11.0
 20
9.5
 30
0.0
 42
0.414214
  0
VERTEX
  8
150UB18
  5
237
 10
-3.0
 20
17.5
 30
0.0
  0
VERTEX
  8
150UB18
  5
238
 10
-3.0
 20
137.5
 30
0.0
 42
0.414214
  0
VERTEX
  8
150UB18
  5
239
 10
-11.0
 20
145.5
 30
0.0
  0
VERTEX
  8
150UB18
  5
23A
 10
-37.5
 20
145.5
 30
0.0
  0
VERTEX
  8
150UB18
  5
23B
 10
-37.5
 20
155.0
 30
0.0
  0
SEQEND
  8
150UB18
  5
22C
  0
POLYLINE
  8
180UB16
  5
215
 66
     1
 10
0.0
 20
0.0
 30
0.0
 70
     1
  0
VERTEX
  8
180UB16
  5
216
 10
-45.0
 20
173.0
 30
0.0
  0
VERTEX
  8
180UB16
  5
217
 10
45.0
 20
173.0
 30
0.0
  0
VERTEX
  8
180UB16
  5
219
 10
45.0
 20
166.0
 30
0.0
  0
VERTEX
  8
180UB16
  5
21A
 10
11.15
 20
166.0
 30
0.0
 42
0.414214
  0
VERTEX
  8
180UB16
  5
21B
 10
2.25
 20
157.1
 30
0.0
  0
VERTEX
  8
180UB16
  5
21C
 10
2.25
 20
15.9
 30
0.0
 42
0.414214
  0
VERTEX
  8
180UB16
  5
21D
 10
11.15
 20
7.0
 30
0.0
  0
VERTEX
  8
180UB16
  5
21E
 10
45.0
 20
7.0
 30
0.0
  0
VERTEX
  8
180UB16
  5
21F
 10
45.0
 20
0.0
 30
0.0
  0
VERTEX
  8
180UB16
  5
220
 10
-45.0
 20
0.0
 30
0.0
  0
VERTEX
  8
180UB16
  5
221
 10
-45.0
 20
7.0
 30
0.0
  0
VERTEX
  8
180UB16
  5
222
 10
-11.15
 20
7.0
 30
0.0
 42
0.414214
  0
VERTEX
  8
180UB16
  5
223
 10
-2.25
 20
15.9
 30
0.0
  0
VERTEX
  8
180UB16
  5
224
 10
-2.25
 20
157.1
 30
0.0
 42
0.414214
  0
VERTEX
  8
180UB16
  5
225
 10
-11.15
 20
166.0
 30
0.0
  0
VERTEX
  8
180UB16
  5
226
 10
-45.0
 20
166.0
 30
0.0
  0
VERTEX
  8
180UB16
  5
227
 10
-45.0
 20
173.0
 30
0.0
  0
SEQEND
  8
180UB16
  5
218
  0
POLYLINE
  8
180UB18
  5
201
 66
     1
 10
0.0
 20
0.0
 30
0.0
 70
     1
  0
VERTEX
  8
180UB18
  5
202
 10
-45.0
 20
175.0
 30
0.0
  0
VERTEX
  8
180UB18
  5
203
 10
45.0
 20
175.0
 30
0.0
  0
VERTEX
  8
180UB18
  5
205
 10
45.0
 20
167.0
 30
0.0
  0
VERTEX
  8
180UB18
  5
206
 10
11.4
 20
167.0
 30
0.0
 42
0.414214
  0
VERTEX
  8
180UB18
  5
207
 10
2.5
 20
158.1
 30
0.0
  0
VERTEX
  8
180UB18
  5
208
 10
2.5
 20
16.9
 30
0.0
 42
0.414214
  0
VERTEX
  8
180UB18
  5
209
 10
11.4
 20
8.0
 30
0.0
  0
VERTEX
  8
180UB18
  5
20A
 10
45.0
 20
8.0
 30
0.0
  0
VERTEX
  8
180UB18
  5
20B
 10
45.0
 20
0.0
 30
0.0
  0
VERTEX
  8
180UB18
  5
20C
 10
-45.0
 20
0.0
 30
0.0
  0
VERTEX
  8
180UB18
  5
20D
 10
-45.0
 20
8.0
 30
0.0
  0
VERTEX
  8
180UB18
  5
20E
 10
-11.4
 20
8.0
 30
0.0
 42
0.414214
  0
VERTEX
  8
180UB18
  5
20F
 10
-2.5
 20
16.9
 30
0.0
  0
VERTEX
  8
180UB18
  5
210
 10
-2.5
 20
158.1
 30
0.0
 42
0.414214
  0
VERTEX
  8
180UB18
  5
211
 10
-11.4
 20
167.0
 30
0.0
  0
VERTEX
  8
180UB18
  5
212
 10
-45.0
 20
167.0
 30
0.0
  0
VERTEX
  8
180UB18
  5
213
 10
-45.0
 20
175.0
 30
0.0
  0
SEQEND
  8
180UB18
  5
204
  0
POLYLINE
  8
180UB22
  5
1ED
 66
     1
 10
0.0
 20
0.0
 30
0.0
 70
     1
  0
VERTEX
  8
180UB22
  5
1EE
 10
-45.0
 20
179.0
 30
0.0
  0
VERTEX
  8
180UB22
  5
1EF
 10
45.0
 20
179.0
 30
0.0
  0
VERTEX
  8
180UB22
  5
1F1
 10
45.0
 20
169.0
 30
0.0
  0
VERTEX
  8
180UB22
  5
1F2
 10
11.9
 20
169.0
 30
0.0
 42
0.414214
  0
VERTEX
  8
180UB22
  5
1F3
 10
3.0
 20
160.1
 30
0.0
  0
VERTEX
  8
180UB22
  5
1F4
 10
3.0
 20
18.9
 30
0.0
 42
0.414214
  0
VERTEX
  8
180UB22
  5
1F5
 10
11.9
 20
10.0
 30
0.0
  0
VERTEX
  8
180UB22
  5
1F6
 10
45.0
 20
10.0
 30
0.0
  0
VERTEX
  8
180UB22
  5
1F7
 10
45.0
 20
0.0
 30
0.0
  0
VERTEX
  8
180UB22
  5
1F8
 10
-45.0
 20
0.0
 30
0.0
  0
VERTEX
  8
180UB22
  5
1F9
 10
-45.0
 20
10.0
 30
0.0
  0
VERTEX
  8
180UB22
  5
1FA
 10
-11.9
 20
10.0
 30
0.0
 42
0.414214
  0
VERTEX
  8
180UB22
  5
1FB
 10
-3.0
 20
18.9
 30
0.0
  0
VERTEX
  8
180UB22
  5
1FC
 10
-3.0
 20
160.1
 30
0.0
 42
0.414214
  0
VERTEX
  8
180UB22
  5
1FD
 10
-11.9
 20
169.0
 30
0.0
  0
VERTEX
  8
180UB22
  5
1FE
 10
-45.0
 20
169.0
 30
0.0
  0
VERTEX
  8
180UB22
  5
1FF
 10
-45.0
 20
179.0
 30
0.0
  0
SEQEND
  8
180UB22
  5
1F0
  0
POLYLINE
  8
200UB18
  5
1D9
 66
     1
 10
0.0
 20
0.0
 30
0.0
 70
     1
  0
VERTEX
  8
200UB18
  5
1DA
 10
-49.5
 20
198.0
 30
0.0
  0
VERTEX
  8
200UB18
  5
1DB
 10
49.5
 20
198.0
 30
0.0
  0
VERTEX
  8
200UB18
  5
1DD
 10
49.5
 20
191.0
 30
0.0
  0
VERTEX
  8
200UB18
  5
1DE
 10
13.25
 20
191.0
 30
0.0
 42
0.414214
  0
VERTEX
  8
200UB18
  5
1DF
 10
2.25
 20
180.0
 30
0.0
  0
VERTEX
  8
200UB18
  5
1E0
 10
2.25
 20
18.0
 30
0.0
 42
0.414214
  0
VERTEX
  8
200UB18
  5
1E1
 10
13.25
 20
7.0
 30
0.0
  0
VERTEX
  8
200UB18
  5
1E2
 10
49.5
 20
7.0
 30
0.0
  0
VERTEX
  8
200UB18
  5
1E3
 10
49.5
 20
0.0
 30
0.0
  0
VERTEX
  8
200UB18
  5
1E4
 10
-49.5
 20
0.0
 30
0.0
  0
VERTEX
  8
200UB18
  5
1E5
 10
-49.5
 20
7.0
 30
0.0
  0
VERTEX
  8
200UB18
  5
1E6
 10
-13.25
 20
7.0
 30
0.0
 42
0.414214
  0
VERTEX
  8
200UB18
  5
1E7
 10
-2.25
 20
18.0
 30
0.0
  0
VERTEX
  8
200UB18
  5
1E8
 10
-2.25
 20
180.0
 30
0.0
 42
0.414214
  0
VERTEX
  8
200UB18
  5
1E9
 10
-13.25
 20
191.0
 30
0.0
  0
VERTEX
  8
200UB18
  5
1EA
 10
-49.5
 20
191.0
 30
0.0
  0
VERTEX
  8
200UB18
  5
1EB
 10
-49.5
 20
198.0
 30
0.0
  0
SEQEND
  8
200UB18
  5
1DC
  0
ENDSEC
  0
EOF
